<svg xmlns="http://www.w3.org/2000/svg" viewBox="0 0 240 440" width="240" height="440">
<defs>
  <linearGradient id="g-rose" x1="0" y1="0" x2="1" y2="1">
    <stop offset="0" stop-color="#E69393" stop-opacity=".78"/>
    <stop offset="1" stop-color="#942C5B" stop-opacity=".92"/>
  </linearGradient>
  <linearGradient id="l-rose" x1="0" y1="0" x2="0" y2="1">
    <stop offset="0" stop-color="#87E627" stop-opacity=".85"/>
    <stop offset="1" stop-color="#942C5B" stop-opacity=".95"/>
  </linearGradient>
  <clipPath id="c-rose"><path d="M104 62 V146 C104 166 92 176 78 184 C36 206 12 246 12 292 C12 356 60 404 120 404 C180 404 228 356 228 292 C228 246 204 206 162 184 C148 176 136 166 136 146 V62 Z"/></clipPath>
</defs>
<path d="M104 62 V146 C104 166 92 176 78 184 C36 206 12 246 12 292 C12 356 60 404 120 404 C180 404 228 356 228 292 C228 246 204 206 162 184 C148 176 136 166 136 146 V62 Z" fill="url(#g-rose)"/>
<g clip-path="url(#c-rose)">
  <path d="M0 258 C40 244 80 272 120 258 C160 244 200 272 240 258 V440 H0 Z" fill="url(#l-rose)"/>
  <path d="M0 258 C40 244 80 272 120 258 C160 244 200 272 240 258"
        fill="none" stroke="#FFD06B" stroke-width="3" stroke-opacity=".7"/>
  <g transform="rotate(-14 120 250)">
    <rect x="84" y="150" width="72" height="190" rx="14" fill="#FFD06B"/>
    <path d="M96 182 H144 M96 202 H140 M96 222 H146 M96 242 H132 M96 262 H142 M96 282 H128"
          stroke="#942C5B" stroke-width="3" stroke-linecap="round"/>
    <ellipse cx="120" cy="150" rx="36" ry="9" fill="#E69393"/>
    <ellipse cx="120" cy="340" rx="36" ry="9" fill="#E69393"/>
  </g>
</g>
<path d="M104 62 V146 C104 166 92 176 78 184 C36 206 12 246 12 292 C12 356 60 404 120 404 C180 404 228 356 228 292 C228 246 204 206 162 184 C148 176 136 166 136 146 V62 Z" fill="none" stroke="#180724" stroke-width="6" stroke-linejoin="round"/>
<path d="M58 250 C50 290 56 336 80 368" fill="none" stroke="#FFD06B" stroke-width="7" stroke-linecap="round" stroke-opacity=".75" clip-path="url(#c-rose)"/>
<path d="M122 90 V130" stroke="#FFD06B" stroke-width="5" stroke-linecap="round" stroke-opacity=".75"/>
<rect x="94" y="48" width="52" height="18" rx="9" fill="#E69393" stroke="#180724" stroke-width="5"/>
<path d="M104 8 H136 C142 8 146 12 146 18 V44 C146 48 142 52 136 52 H104 C98 52 94 48 94 44 V18 C94 12 98 8 104 8 Z"
      fill="#942C5B" stroke="#180724" stroke-width="5"/>
<path d="M104 18 H136 M104 28 H136 M104 38 H136" stroke="#E69393" stroke-width="2.4" stroke-linecap="round"/>
<path d="M100 78 C120 86 140 74 150 84 C158 92 150 104 160 112" fill="none" stroke="#FFD06B" stroke-width="4" stroke-linecap="round"/>
</svg>
